<svg width="243" height="57" viewBox="0 0 243 57" xmlns="http://www.w3.org/2000/svg" xmlns:xlink="http://www.w3.org/1999/xlink"><title>Page 1 + Page 1</title><defs><path id="a" d="M0 1.035h56.965V58H0"/><path id="c" d="M0 1.035h56.965V58H0"/><path id="e" d="M0 .302h169.445V20H0V.302z"/></defs><g fill="none" fill-rule="evenodd"><g transform="translate(0 -1)"><mask id="b" fill="#fff"><use xlink:href="#a"/></mask><path d="M31.84 50.303c-.642.06-1.282.136-1.924.178-1.55.1-3.092-.023-4.63-.2-.492 2.524-1.623 4.73-3.283 6.68-.082.1-.147.174-.205.246A28.58 28.58 0 0 0 28.48 58c.218 0 .432-.012.648-.017.235-.596.955-1.642 1.267-2.41.69-1.7 1.183-3.455 1.444-5.27" fill="#FEFEFE" mask="url(#b)"/></g><path d="M10.08 31.987c1.633-.12 3.253-.043 4.83.455.078.01.158.013.234.035 5.086 1.59 8.374 4.95 9.916 10.04 2.202.648 4.42.652 6.647.16-1.46-8.564-8.282-15.455-16.762-16.934-.095-.016-.185-.056-.276-.085-.674-.065-1.345-.14-2.02-.196-1.513-.12-3.02-.012-4.525.174-.44.087-.88.167-1.318.263-2.227.484-5.73 2.583-6.798 2.99.03 2.55.4 5.016 1.06 7.363 2.005-2.008 4.36-3.373 7.153-3.966.605-.185 1.232-.255 1.856-.3M34.5 19.714a13 13 0 0 1-2.47-5.187c-.615-.205-1.253-.292-1.89-.346-1.594-.134-3.18-.12-4.732.34 1.222 6.425 4.59 11.37 10.255 14.674 3.522 2.055 7.357 2.925 11.44 2.68 3.57-.217 6.847-1.303 9.855-3.208.002-.05.004-.098.004-.148 0-2.545-.34-5.01-.964-7.36-2.454 2.455-5.41 3.918-8.863 4.177-5.184.388-9.422-1.523-12.635-5.62M28.198 7.61c1.245-.018 2.478.087 3.712.214.566-2.645 1.81-4.928 3.647-6.902A28.55 28.55 0 0 0 28.48.037c-.057 0-.117.002-.177.004-.373 1.784-2.543 4.954-2.945 7.794.948-.058 1.887-.21 2.84-.223" fill="#FEFEFE"/><path d="M56.96 28.666c-3.01 1.905-6.283 2.99-9.853 3.205-4.084.25-7.92-.622-11.443-2.677-5.662-3.3-9.033-8.247-10.253-14.674-.047.002-.096-.005-.143.006-5.187 1.16-9.664 5.865-10.598 11.134.092.028.18.066.275.084 8.48 1.48 15.303 8.37 16.762 16.933.19-.044.38-.08.565-.13 4.145-1.143 7.188-3.644 9.165-7.45.158-.305.276-.33.573-.185 1.677.82 3.362 1.624 5.055 2.41.337.158.354.29.198.602-1.47 2.933-3.494 5.403-6.102 7.392-2.77 2.113-5.893 3.404-9.32 3.987a22.396 22.396 0 0 1-1.443 5.27c-.312.768-1.032 1.815-1.267 2.41 15.382-.343 27.756-12.87 27.834-28.317" fill="#455D72"/><g transform="translate(0 -1)"><mask id="d" fill="#fff"><use xlink:href="#c"/></mask><path d="M8.126 26.634c.03-.19.056-.38.092-.57 1.476-7.652 5.78-13.022 12.97-16.055 1.338-.567 2.754-.877 4.17-1.178.402-2.84 2.573-6.01 2.946-7.792C12.654 1.138 0 13.85 0 29.518c0 .125.008.25.008.372 1.07-.405 4.574-2.506 6.8-2.992.437-.096.88-.177 1.318-.264" fill="#455D72" mask="url(#d)"/></g><path d="M30.14 14.18c.638.055 1.276.142 1.89.347 4.25 1.068 7.34 3.598 9.387 7.444.12.227.163.46.542.274 1.7-.84 3.416-1.653 5.133-2.46.277-.132.34-.232.192-.527-2.21-4.408-5.537-7.674-9.998-9.773-1.716-.807-3.523-1.31-5.38-1.657-1.232-.128-2.466-.235-3.71-.217-.953.015-1.892.167-2.84.225-1.417.3-2.83.61-4.172 1.173C14 12.042 9.695 17.41 8.22 25.063c-.04.19-.064.38-.093.57 1.504-.184 3.012-.29 4.526-.17.672.055 1.343.128 2.015.195.934-5.27 5.41-9.973 10.598-11.133.047-.012.096-.005.145-.007 1.553-.46 3.14-.473 4.73-.337m-5.08 28.336c-.065-.007-.132-.003-.192-.023-5.102-1.584-8.432-4.923-9.958-10.052-1.577-.495-3.197-.573-4.83-.453-.624.047-1.25.116-1.856.302.03.11.065.215.09.324 1.626 7.395 5.9 12.586 12.898 15.51 1.31.547 2.692.853 4.073 1.156 1.54.176 3.08.303 4.63.2.644-.042 1.282-.118 1.924-.178 3.425-.58 6.55-1.874 9.316-3.987 2.608-1.987 4.633-4.46 6.103-7.393.156-.31.14-.443-.2-.6a268.532 268.532 0 0 1-5.054-2.41c-.297-.146-.413-.122-.573.184-1.975 3.806-5.02 6.31-9.164 7.45-.187.052-.376.088-.564.13-2.228.493-4.445.49-6.647-.16" fill="#EC9127"/><path d="M37.287 9.483c4.464 2.1 7.787 5.365 9.998 9.773.147.294.085.397-.192.526-1.717.808-3.433 1.62-5.135 2.46-.377.188-.422-.046-.542-.272-2.046-3.843-5.137-6.373-9.385-7.444a12.972 12.972 0 0 0 2.474 5.187c3.212 4.1 7.45 6.01 12.633 5.62 3.455-.255 6.41-1.72 8.863-4.172C53.356 11.25 45.506 3.468 35.557.925c-1.836 1.972-3.08 4.256-3.65 6.902 1.856.348 3.666.852 5.38 1.658M25.284 49.28c-1.38-.305-2.764-.61-4.073-1.157-6.994-2.924-11.27-8.115-12.894-15.51-.025-.11-.06-.217-.092-.324-2.788.59-5.146 1.957-7.152 3.965C3.85 46.11 11.794 53.795 21.8 56.203c.06-.07.122-.147.205-.243 1.66-1.952 2.79-4.158 3.28-6.68m-.417-6.786c.06.018.128.016.192.022-1.543-5.088-4.832-8.45-9.916-10.038-.075-.025-.156-.025-.234-.038 1.524 5.128 4.857 8.47 9.958 10.054" fill="#455D72"/><g transform="translate(73 19)"><path d="M0 9.96C0 8.8.214 7.645.64 6.49a9.498 9.498 0 0 1 1.866-3.088c.816-.907 1.812-1.64 2.986-2.203C6.664.635 7.996.353 9.49.353c1.776 0 3.317.39 4.623 1.17 1.307.78 2.28 1.797 2.92 3.048l-3.36 2.395A3.95 3.95 0 0 0 12.86 5.7a4.38 4.38 0 0 0-1.08-.815 4.296 4.296 0 0 0-1.197-.435 6.116 6.116 0 0 0-1.2-.122c-.836 0-1.562.173-2.186.516A4.85 4.85 0 0 0 5.65 6.18a5.56 5.56 0 0 0-.905 1.85 7.613 7.613 0 0 0-.294 2.094c0 .762.118 1.497.35 2.202a5.83 5.83 0 0 0 1 1.88 4.85 4.85 0 0 0 1.57 1.29c.615.317 1.302.477 2.066.477.392 0 .796-.05 1.213-.15a4.8 4.8 0 0 0 1.2-.462 4.39 4.39 0 0 0 1.053-.813c.318-.336.577-.75.77-1.238l3.574 2.15a5.698 5.698 0 0 1-1.266 1.902 7.752 7.752 0 0 1-1.932 1.415c-.73.382-1.502.673-2.32.87-.817.2-1.617.3-2.4.3-1.367 0-2.624-.284-3.77-.857A9.558 9.558 0 0 1 2.6 16.82a10.47 10.47 0 0 1-1.92-3.212A10.236 10.236 0 0 1 0 9.96M35.717.465v19.318h-4.37v-7.918H23.8v7.918h-4.37V.465h4.37v7.48h7.544V.465h4.37zM48.67 12.38l-2.21-6.828-2.267 6.83h4.478zM44.488.466h3.946l6.902 19.318h-4.478l-1.466-4.327H43.5l-1.44 4.327h-4.477L44.487.464z" fill="#FFF"/><mask id="f" fill="#fff"><use xlink:href="#e"/></mask><path d="M57.2.464h4.372v19.318h-4.37V.464zm11.835 8.272v11.047h-4.37V.465h3.41l8.823 11.345V.465h4.37v19.318H77.75L69.037 8.736zm25.188 3.644L92.01 5.553l-2.265 6.83h4.478zM90.038.466h3.945l6.904 19.318H96.41l-1.467-4.327h-5.89l-1.44 4.327h-4.478L90.038.464zm12.716 19.316V.464h4.37v15.4h9.17v3.918h-13.54zM117.52.465l4.08 8.87 4.13-8.87h4.772l-6.743 12.732v6.586h-4.347v-6.638L112.777.465h4.744zm25.056 5.66c-.054-.07-.24-.21-.56-.408a11.596 11.596 0 0 0-2.773-1.198 6.134 6.134 0 0 0-1.704-.244c-1.566 0-2.348.536-2.348 1.607 0 .327.083.598.253.816.17.218.416.412.746.585s.744.33 1.24.478c.498.145 1.075.31 1.734.49.905.253 1.722.53 2.453.83.728.298 1.344.67 1.85 1.114.506.447.898.987 1.174 1.62.275.636.414 1.397.414 2.287 0 1.086-.2 2.01-.6 2.76-.4.75-.93 1.36-1.587 1.822a6.573 6.573 0 0 1-2.264 1.006 11.05 11.05 0 0 1-2.64.314 15.12 15.12 0 0 1-4.264-.64 16.388 16.388 0 0 1-2.014-.75 11.077 11.077 0 0 1-1.8-1.004l1.92-3.89c.072.09.302.262.694.515.39.256.876.508 1.453.765.577.252 1.222.478 1.933.68.71.198 1.43.298 2.16.298 1.545 0 2.318-.48 2.318-1.442 0-.363-.116-.66-.346-.897-.233-.236-.552-.447-.96-.64-.408-.19-.892-.366-1.452-.53-.56-.163-1.17-.343-1.827-.545-.87-.272-1.63-.565-2.268-.883-.64-.318-1.17-.687-1.585-1.103a3.994 3.994 0 0 1-.934-1.442c-.205-.544-.306-1.18-.306-1.904 0-1.014.187-1.912.56-2.692.373-.78.88-1.436 1.52-1.973a6.556 6.556 0 0 1 2.225-1.21 8.66 8.66 0 0 1 2.68-.41c.656 0 1.305.066 1.944.193.64.125 1.252.29 1.84.49.586.2 1.13.424 1.64.68.507.254.972.508 1.4.76l-1.92 3.7zm5.038-5.66h4.37V19.78h-4.37V.464zm19.35 5.66c-.053-.07-.24-.21-.56-.408a11.596 11.596 0 0 0-2.773-1.198 6.134 6.134 0 0 0-1.703-.244c-1.564 0-2.346.536-2.346 1.607 0 .327.083.598.253.816.17.218.416.412.746.585s.745.33 1.24.478c.5.145 1.076.31 1.735.49.905.253 1.722.53 2.45.83.73.298 1.347.67 1.853 1.114.506.447.898.987 1.174 1.62.275.636.414 1.397.414 2.287 0 1.086-.2 2.01-.6 2.76-.4.75-.93 1.36-1.587 1.822a6.573 6.573 0 0 1-2.265 1.006 11.05 11.05 0 0 1-2.64.314 15.12 15.12 0 0 1-4.264-.64 16.388 16.388 0 0 1-2.01-.75 11.077 11.077 0 0 1-1.8-1.004l1.92-3.89c.072.09.3.262.693.515.39.256.875.508 1.452.765.577.252 1.222.478 1.933.68.71.198 1.43.298 2.16.298 1.545 0 2.318-.48 2.318-1.442 0-.363-.116-.66-.348-.897-.23-.236-.55-.447-.958-.64-.408-.19-.892-.366-1.452-.53-.56-.163-1.17-.343-1.827-.545a15.522 15.522 0 0 1-2.265-.883c-.64-.318-1.17-.687-1.585-1.103a3.994 3.994 0 0 1-.934-1.442c-.205-.544-.306-1.18-.306-1.904 0-1.014.187-1.912.56-2.692.373-.78.88-1.436 1.52-1.973A6.556 6.556 0 0 1 159.38.71a8.66 8.66 0 0 1 2.68-.41c.656 0 1.305.066 1.944.193.64.125 1.252.29 1.84.49.586.2 1.13.424 1.64.68.507.254.972.508 1.4.76l-1.92 3.7z" fill="#FFF" mask="url(#f)"/></g></g></svg>